<?xml version="1.0" standalone="no"?>
<!DOCTYPE svg PUBLIC "-//W3C//DTD SVG 20010904//EN"
 "http://www.w3.org/TR/2001/REC-SVG-20010904/DTD/svg10.dtd">
<svg version="1.0" xmlns="http://www.w3.org/2000/svg"
 width="1280.000000pt" height="1280.000000pt" viewBox="0 0 1280.000000 1280.000000"
 preserveAspectRatio="xMidYMid meet">
<metadata>
Created by potrace 1.15, written by Peter Selinger 2001-2017
</metadata>
<g transform="translate(0.000000,1280.000000) scale(0.100000,-0.100000)"
fill="#000000" stroke="none">
<path d="M9380 12330 c-412 -51 -785 -233 -1122 -548 -161 -152 -355 -399
-490 -624 -68 -114 -78 -126 -192 -221 -444 -374 -1208 -1152 -1742 -1772
-383 -446 -566 -692 -655 -879 -180 -383 -468 -1407 -699 -2487 -28 -130 -61
-267 -74 -305 -121 -354 -377 -843 -995 -1897 -264 -449 -375 -644 -431 -757
-24 -47 -110 -209 -193 -360 -174 -320 -390 -751 -466 -930 -192 -456 -220
-722 -83 -798 l41 -23 43 19 c61 28 99 58 217 175 397 392 1073 1249 2291
2907 139 190 313 424 385 520 73 96 223 310 335 475 248 365 349 506 501 695
336 416 624 668 942 820 l98 47 59 -24 c62 -24 364 -113 387 -113 7 0 13 -3
13 -6 0 -3 -67 -71 -149 -152 -122 -121 -150 -155 -160 -189 -17 -61 0 -114
54 -172 40 -43 156 -121 180 -121 5 0 20 45 33 100 49 210 144 341 304 419
108 53 193 74 298 73 247 -1 443 -164 481 -399 6 -40 15 -73 20 -73 12 0 83
97 109 150 80 158 64 337 -39 440 -91 91 -208 129 -416 136 l-140 5 -187 92
c-104 50 -188 94 -188 98 0 3 24 19 53 34 473 257 1078 734 1456 1148 353 388
513 655 590 984 47 200 53 277 60 773 7 411 10 482 25 530 25 79 30 82 96 65
199 -54 450 -58 571 -10 12 4 23 -9 44 -57 24 -53 29 -77 29 -150 1 -54 5 -88
11 -88 34 0 189 112 275 199 154 155 207 288 197 496 -6 127 -36 245 -95 383
l-40 92 27 62 c23 56 26 76 26 178 0 136 -18 199 -93 328 -193 335 -620 605
-1097 693 -126 23 -388 33 -505 19z"/>
</g>
</svg>
